<svg width="66" height="79" viewBox="0 0 66 79" fill="none" xmlns="http://www.w3.org/2000/svg">
<path d="M13.2 26.3333L13.2033 57.4198C13.2033 60.254 15.5001 62.5417 18.3414 62.5417H19.8V74.2008C19.8 76.8473 22.1331 79 24.783 79C27.4428 79 29.7 76.8473 29.7 74.1975V62.5417H36.3V74.2008C36.3 76.8473 38.6331 79 41.2863 79C43.9461 79 46.2 76.8473 46.2 74.1975V62.5417L47.6652 62.5384C50.4966 62.5384 52.8 60.2474 52.8 57.4132V26.3333H13.2ZM66 31.1754C66 28.5256 63.7065 26.3333 61.05 26.3333C58.3935 26.33 56.1 28.5289 56.1 31.1787V51.2776C56.1 53.9307 58.3902 55.9583 61.05 55.9583C63.7065 55.9583 66 53.934 66 51.2776V31.1754ZM9.9 31.1754C9.9 28.5256 7.6065 26.3333 4.95 26.3333C2.2935 26.33 0 28.5289 0 31.1787V51.2776C0 53.9307 2.2902 55.9583 4.95 55.9583C7.6065 55.9583 9.9 53.934 9.9 51.2776V31.1754ZM42.7383 7.10671L45.8403 0.9875C46.0647 0.553 45.7776 0 45.3024 0C45.0846 0 44.8734 0.125083 44.7612 0.345625L41.6295 6.52738C36.5772 4.10142 29.9343 3.85454 24.3738 6.52738L21.2388 0.345625C21.1299 0.125083 20.9187 0 20.6976 0C20.2224 0 19.9353 0.553 20.1597 0.9875L23.2617 7.10671C17.1732 10.5103 13.2 15.6124 13.2 23.0384H52.8C52.8 15.6124 48.8268 10.5103 42.7383 7.10671ZM24.7533 16.4583C23.8425 16.4583 23.1 15.721 23.1 14.8125C23.1 13.9106 23.8425 13.1667 24.7533 13.1667C25.6641 13.1667 26.4 13.9106 26.4 14.8125C26.4 15.721 25.6641 16.4583 24.7533 16.4583ZM41.2467 16.4583C40.3359 16.4583 39.6 15.721 39.6 14.8125C39.6 13.9106 40.3359 13.1667 41.2467 13.1667C42.1575 13.1667 42.9 13.9106 42.9 14.8125C42.9 15.721 42.1575 16.4583 41.2467 16.4583Z" fill="white"/>
</svg>
